<?xml version="1.0" encoding="UTF-8" ?>
<!DOCTYPE svg PUBLIC "-//W3C//DTD SVG 1.1//EN" "http://www.w3.org/Graphics/SVG/1.1/DTD/svg11.dtd">
<svg width="456pt" height="456pt" viewBox="0 0 456 456" version="1.1" xmlns="http://www.w3.org/2000/svg">
<path fill="#ffffff" d=" M 0.00 0.00 L 456.00 0.00 L 456.00 456.00 L 0.00 456.00 L 0.00 0.00 Z" />
<path fill="#c3155c" d=" M 192.63 4.46 C 196.43 4.67 200.26 4.71 203.91 3.49 C 211.82 3.24 219.74 3.48 227.65 3.40 C 227.15 18.93 227.73 34.47 227.34 50.00 C 220.92 50.17 214.45 49.50 208.08 50.54 C 202.40 47.10 196.31 44.44 190.42 41.39 C 183.43 38.00 176.68 34.07 169.34 31.47 C 169.63 24.52 168.58 17.45 170.18 10.62 C 170.26 10.29 170.41 9.63 170.48 9.30 C 172.09 9.29 173.70 9.28 175.31 9.24 C 177.32 6.76 180.93 8.54 182.98 6.37 C 185.40 6.24 187.83 6.25 190.25 6.29 C 191.04 5.68 191.83 5.07 192.63 4.46 Z" />
<path fill="#c74e6d" d=" M 227.65 3.40 C 235.44 3.50 243.26 3.20 251.05 3.52 C 254.71 4.65 258.53 4.70 262.32 4.46 C 263.16 5.08 264.00 5.69 264.85 6.30 C 267.64 6.46 270.92 5.46 273.27 7.42 C 274.62 7.48 275.98 7.53 277.33 7.56 C 278.12 8.11 278.91 8.67 279.71 9.21 C 283.08 8.88 285.97 11.00 289.35 10.67 C 290.13 11.19 290.92 11.72 291.70 12.25 C 296.49 11.88 300.33 15.25 304.78 16.49 C 305.40 16.54 306.63 16.63 307.25 16.68 C 308.04 17.20 308.84 17.73 309.65 18.25 C 314.51 18.94 318.61 22.07 322.86 24.33 C 323.60 24.42 325.06 24.58 325.80 24.66 C 329.16 26.71 332.69 28.47 336.27 30.08 C 338.54 31.91 341.38 33.09 343.32 35.27 C 343.49 43.05 343.44 50.84 343.07 58.62 C 327.45 51.17 312.05 43.28 296.53 35.62 C 293.41 34.13 290.45 32.06 286.98 31.49 C 283.98 31.86 281.38 33.60 278.68 34.84 C 267.79 40.09 257.17 45.89 246.05 50.63 C 239.86 49.51 233.57 50.14 227.34 50.00 C 227.73 34.47 227.15 18.93 227.65 3.40 Z" />
<path fill="#c74e6d" d=" M 163.31 12.28 C 164.10 11.71 164.89 11.13 165.68 10.55 C 167.18 10.57 168.68 10.59 170.18 10.62 C 168.58 17.45 169.63 24.52 169.34 31.47 C 158.56 36.11 148.45 42.08 137.74 46.84 C 129.25 50.97 121.31 56.64 111.96 58.66 C 112.16 50.82 111.85 42.97 112.21 35.14 C 112.39 33.04 115.56 33.24 116.87 31.86 C 120.61 28.82 125.18 27.18 129.24 24.65 C 129.97 24.57 131.42 24.42 132.15 24.35 C 135.48 22.08 139.32 20.73 142.69 18.51 C 143.34 18.49 144.65 18.43 145.31 18.41 C 146.08 17.88 146.86 17.35 147.65 16.83 C 149.07 16.67 150.46 16.34 151.74 15.71 C 155.82 15.11 158.91 11.42 163.31 12.28 Z" />
<path fill="#a3187d" d=" M 278.68 34.84 C 281.38 33.60 283.98 31.86 286.98 31.49 C 290.45 32.06 293.41 34.13 296.53 35.62 C 312.05 43.28 327.45 51.17 343.07 58.62 C 343.25 58.93 343.63 59.55 343.81 59.87 C 343.91 60.02 344.10 60.33 344.19 60.48 C 334.03 64.15 324.86 70.03 314.97 74.34 C 308.65 69.66 301.22 66.92 294.39 63.11 C 293.94 63.06 293.05 62.97 292.60 62.92 C 291.55 62.34 290.50 61.76 289.44 61.20 C 288.41 60.89 287.39 60.57 286.38 60.24 C 285.93 60.13 285.05 59.89 284.61 59.78 C 283.60 59.41 282.60 59.06 281.60 58.71 C 280.20 58.23 278.80 57.76 277.41 57.28 C 276.41 56.96 275.41 56.64 274.41 56.31 C 273.40 55.98 272.39 55.64 271.39 55.30 C 270.04 54.98 268.68 54.64 267.34 54.28 C 266.44 54.09 265.55 53.89 264.66 53.70 C 263.01 53.28 261.34 52.94 259.67 52.60 C 257.69 52.24 255.70 51.95 253.71 51.62 C 251.18 51.10 248.60 50.92 246.05 50.63 C 257.17 45.89 267.79 40.09 278.68 34.84 Z" />
<path fill="#ba468f" d=" M 137.74 46.84 C 148.45 42.08 158.56 36.11 169.34 31.47 C 176.68 34.07 183.43 38.00 190.42 41.39 C 196.31 44.44 202.40 47.10 208.08 50.54 C 205.39 50.94 202.70 51.23 200.02 51.66 C 188.84 53.08 178.15 56.70 167.52 60.28 C 158.02 63.71 148.85 68.12 140.27 73.43 C 130.84 69.82 122.55 63.44 112.67 60.99 C 108.86 62.21 105.31 64.09 101.76 65.93 C 88.25 72.76 74.60 79.34 61.14 86.30 C 58.65 87.66 55.88 88.32 53.10 88.76 L 51.28 89.10 C 53.56 83.21 59.37 79.78 63.22 74.97 C 64.99 70.77 68.99 68.15 71.94 64.84 C 78.35 61.77 81.53 54.48 87.82 51.14 C 88.97 50.32 90.00 48.73 91.64 49.33 C 98.68 51.86 104.86 56.27 111.96 58.66 C 121.31 56.64 129.25 50.97 137.74 46.84 Z" />
<path fill="#c86174" d=" M 109.53 35.49 C 110.20 35.40 111.54 35.23 112.21 35.14 C 111.85 42.97 112.16 50.82 111.96 58.66 C 104.86 56.27 98.68 51.86 91.64 49.33 C 93.49 47.33 95.17 44.92 97.88 44.02 C 100.91 39.97 106.24 39.15 109.53 35.49 Z" />
<path fill="#ea5d5b" d=" M 343.32 35.27 C 343.86 35.32 344.93 35.43 345.47 35.48 C 346.75 36.84 348.14 38.17 349.96 38.77 C 353.59 39.91 355.53 43.54 359.01 44.88 C 360.65 46.42 362.21 48.03 363.77 49.65 C 357.37 53.53 350.54 56.61 343.81 59.87 C 343.63 59.55 343.25 58.93 343.07 58.62 C 343.44 50.84 343.49 43.05 343.32 35.27 Z" />
<path fill="#ffffff" d=" M 208.08 50.54 C 214.45 49.50 220.92 50.17 227.34 50.00 C 233.57 50.14 239.86 49.51 246.05 50.63 C 248.60 50.92 251.18 51.10 253.71 51.62 C 255.70 51.95 257.69 52.24 259.67 52.60 C 261.34 52.94 263.01 53.28 264.66 53.70 C 265.55 53.89 266.44 54.09 267.34 54.28 C 268.68 54.64 270.04 54.98 271.39 55.30 C 272.39 55.64 273.40 55.98 274.41 56.31 C 275.41 56.64 276.41 56.96 277.41 57.28 C 278.80 57.76 280.20 58.23 281.60 58.71 C 282.60 59.06 283.60 59.41 284.61 59.78 C 285.05 59.89 285.93 60.13 286.38 60.24 C 287.39 60.57 288.41 60.89 289.44 61.20 C 290.50 61.76 291.55 62.34 292.60 62.92 C 293.05 62.97 293.94 63.06 294.39 63.11 C 301.22 66.92 308.65 69.66 314.97 74.34 C 315.38 74.55 316.19 74.96 316.60 75.17 C 323.45 79.24 329.62 84.30 336.03 89.00 C 338.57 90.85 340.71 93.17 342.89 95.42 C 345.69 98.52 349.48 100.59 351.88 104.08 C 361.28 113.97 369.58 124.94 376.39 136.78 L 376.71 137.18 C 380.09 142.78 382.86 148.72 385.74 154.59 C 385.90 155.03 386.20 155.92 386.36 156.36 L 386.69 157.20 C 390.81 165.61 393.33 174.63 395.70 183.65 C 396.01 184.97 396.33 186.29 396.69 187.61 C 398.70 195.17 399.51 202.95 400.74 210.64 C 401.34 221.09 400.80 231.57 401.04 242.03 C 400.76 249.59 399.54 257.11 398.22 264.55 C 396.55 273.03 393.97 281.28 391.78 289.63 L 391.32 290.45 C 388.26 298.76 384.69 306.88 380.65 314.76 C 372.21 330.83 361.18 345.40 348.76 358.57 C 344.44 361.24 341.49 365.46 337.66 368.70 C 326.37 377.52 314.66 386.01 301.67 392.17 C 299.25 393.37 296.83 394.59 294.44 395.85 C 293.96 395.92 293.01 396.05 292.53 396.11 C 291.50 396.69 290.48 397.27 289.45 397.84 C 288.87 397.92 287.71 398.09 287.13 398.17 L 287.14 398.68 C 285.87 399.00 284.62 399.35 283.37 399.72 C 282.93 399.85 282.05 400.10 281.60 400.23 C 280.60 400.59 279.60 400.94 278.59 401.30 C 277.19 401.77 275.79 402.22 274.40 402.70 C 273.39 403.05 272.38 403.42 271.39 403.80 C 270.47 403.94 269.56 404.08 268.65 404.23 C 267.32 404.63 265.99 405.01 264.66 405.39 C 263.01 405.75 261.34 406.06 259.68 406.38 C 257.69 406.74 255.70 407.05 253.72 407.40 C 250.61 407.95 247.43 407.96 244.36 408.69 C 244.08 408.75 243.50 408.89 243.22 408.95 C 234.12 409.11 225.01 408.90 215.91 409.06 C 213.86 408.99 211.82 408.91 209.78 408.76 C 206.66 407.99 203.44 407.91 200.28 407.40 C 198.29 407.05 196.30 406.74 194.31 406.38 C 192.65 406.06 191.00 405.74 189.35 405.36 C 188.02 405.03 186.68 404.70 185.36 404.33 C 184.02 404.00 182.69 403.67 181.37 403.30 C 180.94 403.15 180.08 402.84 179.65 402.69 C 178.31 402.33 176.96 402.01 175.61 401.69 C 174.59 401.37 173.58 401.07 172.56 400.77 C 171.51 400.26 170.46 399.75 169.42 399.24 C 168.40 398.89 167.39 398.55 166.38 398.20 C 165.92 398.13 165.02 397.99 164.56 397.92 C 163.52 397.30 162.49 396.69 161.46 396.08 C 160.99 396.03 160.06 395.93 159.59 395.88 C 157.91 394.99 156.22 394.14 154.53 393.28 C 141.79 387.36 130.15 379.40 119.07 370.84 C 114.52 367.75 111.26 363.21 107.01 359.78 C 103.17 357.37 100.98 353.30 97.78 350.22 C 88.62 339.90 80.87 328.41 74.18 316.36 C 70.01 308.64 66.71 300.52 63.28 292.46 C 62.29 289.54 61.36 286.61 60.71 283.60 C 60.21 282.19 59.71 280.78 59.18 279.38 C 59.04 278.47 58.91 277.57 58.77 276.67 C 58.36 275.34 58.00 274.00 57.64 272.66 C 57.31 271.31 57.01 269.95 56.73 268.60 C 56.55 268.07 56.19 267.02 56.01 266.49 C 55.93 265.79 55.75 264.38 55.67 263.67 C 55.17 261.20 54.82 258.71 54.24 256.26 C 54.09 253.56 54.05 250.82 53.21 248.23 C 52.64 242.00 53.46 235.73 52.62 229.51 C 53.65 222.82 52.23 216.00 53.58 209.35 L 53.65 208.88 C 53.91 206.81 54.08 204.73 54.28 202.66 L 54.53 201.34 C 57.39 185.82 61.09 170.29 67.81 155.95 C 70.29 150.12 73.11 144.42 76.27 138.93 C 84.24 124.88 94.22 112.03 105.43 100.45 C 108.20 98.37 110.67 95.94 113.02 93.40 C 121.35 85.82 130.67 79.31 140.27 73.43 C 148.85 68.12 158.02 63.71 167.52 60.28 C 178.15 56.70 188.84 53.08 200.02 51.66 C 202.70 51.23 205.39 50.94 208.08 50.54 Z" />
<path fill="#ba468f" d=" M 343.81 59.87 C 350.54 56.61 357.37 53.53 363.77 49.65 C 365.55 48.64 366.64 51.16 367.89 52.03 C 368.37 52.17 369.32 52.46 369.80 52.60 C 373.46 56.50 377.22 60.32 381.08 64.02 C 383.94 64.78 385.53 67.44 387.55 69.37 C 389.49 71.47 392.00 73.24 392.88 76.09 C 396.08 79.48 399.22 82.95 402.70 86.05 C 402.67 87.02 402.64 87.98 402.60 88.95 L 402.54 89.95 C 386.77 82.27 371.18 74.22 355.45 66.46 C 351.66 64.53 347.74 62.84 344.19 60.48 C 344.10 60.33 343.91 60.02 343.81 59.87 Z" />
<path fill="#8e177d" d=" M 101.76 65.93 C 105.31 64.09 108.86 62.21 112.67 60.99 C 112.62 71.79 112.06 82.63 113.02 93.40 C 110.67 95.94 108.20 98.37 105.43 100.45 C 94.22 112.03 84.24 124.88 76.27 138.93 C 71.54 140.78 66.95 142.97 62.46 145.35 C 60.00 145.84 57.52 146.26 55.06 146.73 C 54.65 132.16 55.00 117.59 54.86 103.01 C 54.62 98.26 56.08 92.92 53.10 88.76 C 55.88 88.32 58.65 87.66 61.14 86.30 C 74.60 79.34 88.25 72.76 101.76 65.93 Z" />
<path fill="#974390" d=" M 112.67 60.99 C 122.55 63.44 130.84 69.82 140.27 73.43 C 130.67 79.31 121.35 85.82 113.02 93.40 C 112.06 82.63 112.62 71.79 112.67 60.99 Z" />
<path fill="#8e177f" d=" M 314.97 74.34 C 324.86 70.03 334.03 64.15 344.19 60.48 C 347.74 62.84 351.66 64.53 355.45 66.46 C 371.18 74.22 386.77 82.27 402.54 89.95 C 402.05 109.77 402.27 129.62 402.40 149.44 L 402.12 149.54 C 393.82 145.07 385.44 140.74 376.71 137.18 L 376.39 136.78 C 369.58 124.94 361.28 113.97 351.88 104.08 C 349.48 100.59 345.69 98.52 342.89 95.42 C 343.54 84.85 343.53 74.22 342.99 63.65 C 336.79 63.93 332.02 68.18 326.57 70.57 C 323.25 72.11 319.97 73.74 316.60 75.17 C 316.19 74.96 315.38 74.55 314.97 74.34 Z" />
<path fill="#751d81" d=" M 326.57 70.57 C 332.02 68.18 336.79 63.93 342.99 63.65 C 343.53 74.22 343.54 84.85 342.89 95.42 C 340.71 93.17 338.57 90.85 336.03 89.00 C 329.62 84.30 323.45 79.24 316.60 75.17 C 319.97 73.74 323.25 72.11 326.57 70.57 Z" />
<path fill="#751d81" d=" M 45.46 96.41 C 47.67 94.18 48.25 90.56 51.28 89.10 L 53.10 88.76 C 56.08 92.92 54.62 98.26 54.86 103.01 C 55.00 117.59 54.65 132.16 55.06 146.73 C 57.52 146.26 60.00 145.84 62.46 145.35 C 59.72 146.92 56.81 148.16 53.78 149.07 C 50.19 146.57 46.12 144.91 42.26 142.88 C 36.34 139.94 30.54 136.77 24.46 134.17 L 23.04 133.55 C 24.23 131.83 25.37 130.06 26.22 128.16 C 27.00 125.99 28.05 123.92 29.28 121.98 C 29.39 121.51 29.60 120.57 29.71 120.11 C 32.39 118.13 33.22 114.81 34.75 112.03 C 36.46 110.15 37.44 107.76 39.09 105.83 C 39.98 104.12 40.98 102.47 42.19 100.97 C 43.09 99.32 44.13 97.75 45.46 96.41 Z" />
<path fill="#974390" d=" M 402.60 88.95 L 402.67 87.92 C 407.23 91.16 408.62 97.02 413.33 100.15 C 413.41 100.63 413.57 101.60 413.65 102.09 C 418.03 108.51 421.70 115.33 425.96 121.82 C 427.44 125.57 429.55 129.03 431.03 132.79 C 430.81 134.08 430.99 135.82 429.50 136.38 C 421.12 141.22 412.37 145.39 403.44 149.09 L 402.40 149.44 C 402.27 129.62 402.05 109.77 402.54 89.95 L 402.60 88.95 Z" />
<path fill="#756098" d=" M 431.03 132.79 L 431.12 131.84 C 431.76 134.32 432.94 136.60 434.26 138.78 C 435.41 144.76 438.22 150.22 440.35 155.87 C 440.42 156.45 440.55 157.59 440.62 158.16 C 441.47 160.48 442.35 162.79 443.36 165.04 C 443.44 166.77 443.51 168.50 443.56 170.23 C 433.84 166.34 424.81 160.95 415.36 156.49 C 411.28 154.52 407.42 151.74 402.75 151.42 C 402.26 151.36 401.28 151.23 400.79 151.17 C 401.66 150.47 402.54 149.77 403.44 149.09 C 412.37 145.39 421.12 141.22 429.50 136.38 C 430.99 135.82 430.81 134.08 431.03 132.79 Z" />
<path fill="#414a93" d=" M 24.46 134.17 C 30.54 136.77 36.34 139.94 42.26 142.88 C 46.12 144.91 50.19 146.57 53.78 149.07 C 54.44 149.50 55.09 149.93 55.76 150.36 L 54.42 150.46 C 53.96 150.51 53.03 150.61 52.57 150.66 C 42.55 145.54 32.45 140.58 22.44 135.46 L 22.46 134.37 C 22.96 134.32 23.96 134.22 24.46 134.17 Z" />
<path fill="#7ab5d5" d=" M 19.79 142.88 C 19.76 139.80 20.93 136.98 22.46 134.37 L 22.44 135.46 C 21.21 144.32 15.32 151.71 14.57 160.65 C 12.31 163.31 11.99 166.80 11.70 170.13 C 9.51 174.55 9.51 179.64 8.05 184.31 C 6.96 191.54 4.75 198.63 4.85 206.01 C 4.87 215.05 4.59 224.11 5.11 233.15 L 4.86 233.84 L 4.52 234.02 C 3.05 232.74 3.86 230.61 3.63 228.93 C 3.75 219.95 3.60 210.96 3.72 201.98 C 6.88 198.63 3.66 193.63 6.47 190.08 C 6.58 187.49 6.61 184.90 6.65 182.32 L 7.92 182.87 C 7.98 180.92 8.04 178.98 8.10 177.04 C 8.45 176.58 9.14 175.65 9.49 175.18 C 9.67 170.96 11.00 166.82 12.34 162.85 C 12.49 161.71 12.64 160.58 12.77 159.45 L 13.75 159.85 C 13.83 153.59 17.99 148.49 18.92 142.49 L 19.79 142.88 Z" />
<path fill="#0679a5" d=" M 22.44 135.46 C 32.45 140.58 42.55 145.54 52.57 150.66 C 47.12 153.16 41.72 155.75 36.30 158.28 C 27.93 161.90 20.69 167.93 11.70 170.13 C 11.99 166.80 12.31 163.31 14.57 160.65 C 15.32 151.71 21.21 144.32 22.44 135.46 Z" />
<path fill="#801e73" d=" M 376.71 137.18 C 385.44 140.74 393.82 145.07 402.12 149.54 C 396.84 151.80 391.85 154.69 386.69 157.20 L 386.36 156.36 C 386.20 155.92 385.90 155.03 385.74 154.59 C 382.86 148.72 380.09 142.78 376.71 137.18 Z" />
<path fill="#6b4d96" d=" M 62.46 145.35 C 66.95 142.97 71.54 140.78 76.27 138.93 C 73.11 144.42 70.29 150.12 67.81 155.95 C 63.74 154.20 59.72 152.34 55.76 150.36 C 55.09 149.93 54.44 149.50 53.78 149.07 C 56.81 148.16 59.72 146.92 62.46 145.35 Z" />
<path fill="#566aa8" d=" M 402.12 149.54 L 402.40 149.44 L 403.44 149.09 C 402.54 149.77 401.66 150.47 400.79 151.17 C 401.28 151.23 402.26 151.36 402.75 151.42 C 402.62 170.25 402.60 189.08 402.77 207.91 C 402.09 208.82 401.41 209.73 400.74 210.64 C 399.51 202.95 398.70 195.17 396.69 187.61 C 396.33 186.29 396.01 184.97 395.70 183.65 C 393.33 174.63 390.81 165.61 386.69 157.20 C 391.85 154.69 396.84 151.80 402.12 149.54 Z" />
<path fill="#0170b7" d=" M 36.30 158.28 C 41.72 155.75 47.12 153.16 52.57 150.66 C 53.03 150.61 53.96 150.51 54.42 150.46 C 54.38 167.86 54.64 185.27 54.28 202.66 C 54.08 204.73 53.91 206.81 53.65 208.88 C 41.25 215.54 28.59 221.70 15.99 227.97 C 12.36 229.67 9.02 232.07 5.11 233.15 C 4.59 224.11 4.87 215.05 4.85 206.01 C 4.75 198.63 6.96 191.54 8.05 184.31 C 9.51 179.64 9.51 174.55 11.70 170.13 C 20.69 167.93 27.93 161.90 36.30 158.28 Z" />
<path fill="#54babb" d=" M 54.42 150.46 L 55.76 150.36 C 59.72 152.34 63.74 154.20 67.81 155.95 C 61.09 170.29 57.39 185.82 54.53 201.34 L 54.28 202.66 C 54.64 185.27 54.38 167.86 54.42 150.46 Z" />
<path fill="#207999" d=" M 402.75 151.42 C 407.42 151.74 411.28 154.52 415.36 156.49 C 424.81 160.95 433.84 166.34 443.56 170.23 C 443.81 170.33 444.32 170.53 444.57 170.62 C 444.80 172.33 445.07 174.04 445.37 175.74 C 446.86 187.55 450.55 199.03 450.49 211.01 C 450.37 217.63 450.53 224.27 450.26 230.89 C 434.26 223.60 418.70 215.36 402.77 207.91 C 402.60 189.08 402.62 170.25 402.75 151.42 Z" />
<path fill="#53bbba" d=" M 445.37 175.74 C 447.08 176.97 446.58 179.20 446.94 181.00 C 447.28 181.91 447.71 182.78 448.22 183.62 C 448.47 186.55 447.65 189.80 449.50 192.36 C 449.33 195.96 449.84 199.48 450.70 202.96 C 450.64 216.30 450.76 229.64 450.55 242.98 C 435.85 250.12 421.33 257.62 406.67 264.81 C 403.98 266.37 400.96 265.28 398.22 264.55 C 399.54 257.11 400.76 249.59 401.04 242.03 C 400.80 231.57 401.34 221.09 400.74 210.64 C 401.41 209.73 402.09 208.82 402.77 207.91 C 418.70 215.36 434.26 223.60 450.26 230.89 C 450.53 224.27 450.37 217.63 450.49 211.01 C 450.55 199.03 446.86 187.55 445.37 175.74 Z" />
<path fill="#01a175" d=" M 15.99 227.97 C 28.59 221.70 41.25 215.54 53.65 208.88 L 53.58 209.35 C 52.23 216.00 53.65 222.82 52.62 229.51 C 53.46 235.73 52.64 242.00 53.21 248.23 C 54.05 250.82 54.09 253.56 54.24 256.26 C 54.82 258.71 55.17 261.20 55.67 263.67 C 55.75 264.38 55.93 265.79 56.01 266.49 C 43.51 260.66 31.50 253.83 18.99 248.01 C 14.40 245.46 9.35 243.74 4.94 240.88 C 4.70 238.54 4.86 236.19 4.86 233.84 L 5.11 233.15 C 9.02 232.07 12.36 229.67 15.99 227.97 Z" />
<path fill="#3eae76" d=" M 4.52 234.02 L 4.86 233.84 C 4.86 236.19 4.70 238.54 4.94 240.88 C 9.35 243.74 14.40 245.46 18.99 248.01 C 31.50 253.83 43.51 260.66 56.01 266.49 C 56.19 267.02 56.55 268.07 56.73 268.60 C 57.01 269.95 57.31 271.31 57.64 272.66 C 58.00 274.00 58.36 275.34 58.77 276.67 C 58.91 277.57 59.04 278.47 59.18 279.38 C 59.71 280.78 60.21 282.19 60.71 283.60 C 61.36 286.61 62.29 289.54 63.28 292.46 C 66.71 300.52 70.01 308.64 74.18 316.36 C 67.19 319.35 60.83 324.03 53.30 325.56 C 41.89 319.79 30.29 314.34 19.09 308.15 C 17.94 306.60 17.22 304.79 16.35 303.07 C 16.29 302.04 16.22 301.01 16.16 299.99 C 15.78 299.59 15.01 298.81 14.63 298.42 C 14.22 295.87 13.57 293.36 13.01 290.84 C 12.64 290.50 11.91 289.81 11.54 289.47 C 11.49 287.94 11.44 286.41 11.36 284.90 C 9.96 282.36 10.32 279.26 8.76 276.79 C 8.61 275.81 8.47 274.83 8.32 273.86 C 5.12 270.24 8.29 264.95 5.59 261.14 C 6.16 255.98 3.89 251.14 4.37 246.00 C 4.73 242.02 3.45 237.90 4.52 234.02 Z" />
<path fill="#c4d129" d=" M 406.67 264.81 C 421.33 257.62 435.85 250.12 450.55 242.98 C 451.47 249.17 448.93 255.07 449.52 261.24 C 448.91 262.10 448.32 262.96 447.73 263.82 C 447.89 268.93 447.39 274.45 445.00 279.02 C 444.79 281.02 444.74 283.11 443.67 284.89 C 443.53 286.27 443.44 287.66 443.34 289.05 C 442.35 291.28 441.45 293.54 440.62 295.84 C 440.55 296.41 440.41 297.56 440.34 298.13 C 438.93 301.03 438.31 304.29 436.61 307.05 C 434.59 309.89 431.80 312.09 428.60 313.45 C 419.80 317.46 411.41 322.31 402.51 326.08 C 395.60 321.62 387.94 318.52 380.65 314.76 C 384.69 306.88 388.26 298.76 391.32 290.45 L 391.78 289.63 C 393.97 281.28 396.55 273.03 398.22 264.55 C 400.96 265.28 403.98 266.37 406.67 264.81 Z" />
<path fill="#ebe55d" d=" M 428.60 313.45 C 431.80 312.09 434.59 309.89 436.61 307.05 C 435.52 311.54 434.02 315.93 431.82 320.01 C 428.85 325.55 426.74 331.56 422.99 336.65 C 420.39 342.07 416.49 346.71 413.87 352.12 C 412.61 354.70 410.31 356.55 408.94 359.07 C 407.13 362.34 403.78 364.46 402.29 367.95 C 402.67 354.00 402.28 340.04 402.51 326.08 C 411.41 322.31 419.80 317.46 428.60 313.45 Z" />
<path fill="#c4d129" d=" M 19.09 308.15 C 30.29 314.34 41.89 319.79 53.30 325.56 C 56.26 328.56 55.16 333.20 55.42 336.99 C 55.01 347.86 56.14 358.80 54.71 369.62 C 54.22 369.25 53.23 368.49 52.73 368.12 C 51.77 364.51 48.08 362.82 46.41 359.65 C 45.30 357.32 43.36 355.59 41.88 353.52 C 39.82 349.45 37.50 345.51 34.77 341.85 C 33.70 339.74 32.65 337.61 31.32 335.64 C 28.22 331.22 26.37 326.09 23.83 321.35 C 22.84 319.26 21.82 317.19 20.76 315.15 C 20.20 312.82 19.73 310.46 19.09 308.15 Z" />
<path fill="#75b427" d=" M 348.76 358.57 C 361.18 345.40 372.21 330.83 380.65 314.76 C 387.94 318.52 395.60 321.62 402.51 326.08 C 402.28 340.04 402.67 354.00 402.29 367.95 C 398.84 371.70 395.16 375.25 391.88 379.15 C 377.13 373.13 363.32 365.03 348.76 358.57 Z" />
<path fill="#91be1d" d=" M 53.30 325.56 C 60.83 324.03 67.19 319.35 74.18 316.36 C 80.87 328.41 88.62 339.90 97.78 350.22 C 100.98 353.30 103.17 357.37 107.01 359.78 C 92.21 365.96 78.47 374.46 63.63 380.53 L 62.91 380.80 C 62.36 375.97 57.33 373.70 54.65 370.09 L 54.71 369.62 C 56.14 358.80 55.01 347.86 55.42 336.99 C 55.16 333.20 56.26 328.56 53.30 325.56 Z" />
<path fill="#fdea11" d=" M 337.66 368.70 C 341.49 365.46 344.44 361.24 348.76 358.57 C 363.32 365.03 377.13 373.13 391.88 379.15 L 392.80 379.48 C 388.75 383.11 385.17 387.21 381.23 390.96 C 375.54 393.58 372.76 399.98 367.21 402.88 C 364.74 404.54 362.02 405.93 360.02 408.20 C 359.03 409.45 357.53 410.05 356.02 410.35 C 351.05 410.32 346.41 415.44 341.61 412.51 C 328.37 405.59 314.74 399.40 301.67 392.17 C 314.66 386.01 326.37 377.52 337.66 368.70 Z" />
<path fill="#c4d129" d=" M 63.63 380.53 C 78.47 374.46 92.21 365.96 107.01 359.78 C 111.26 363.21 114.52 367.75 119.07 370.84 C 130.15 379.40 141.79 387.36 154.53 393.28 C 141.17 401.24 126.52 406.77 113.19 414.77 C 106.54 411.82 100.56 407.07 93.22 405.94 C 92.16 405.34 91.09 404.74 90.04 404.13 C 83.71 400.46 78.90 394.94 73.87 389.74 C 73.37 389.65 72.38 389.46 71.88 389.37 C 69.25 386.31 66.27 383.57 63.63 380.53 Z" />
<path fill="#ffd302" d=" M 294.44 395.85 C 296.83 394.59 299.25 393.37 301.67 392.17 C 314.74 399.40 328.37 405.59 341.61 412.51 C 346.41 415.44 351.05 410.32 356.02 410.35 C 354.78 412.82 352.43 414.19 349.99 415.22 C 348.27 415.82 346.89 417.03 345.61 418.28 C 341.22 419.81 337.95 423.28 333.69 425.06 C 330.89 426.41 328.16 427.91 325.45 429.44 C 324.80 429.48 323.51 429.56 322.87 429.60 C 319.35 431.69 315.61 433.37 312.13 435.53 C 311.48 435.55 310.19 435.58 309.54 435.60 C 308.82 436.13 308.10 436.66 307.38 437.20 C 305.89 437.27 304.43 437.53 303.23 438.48 C 302.61 438.52 301.36 438.62 300.73 438.67 C 299.14 439.64 297.49 440.53 295.93 441.57 C 294.44 441.60 292.96 441.63 291.47 441.67 C 290.79 442.26 290.10 442.85 289.42 443.44 C 287.98 443.43 286.54 443.43 285.11 443.43 C 285.87 442.60 286.63 441.78 287.40 440.96 C 287.40 426.87 287.79 412.76 287.14 398.68 L 287.13 398.17 C 287.71 398.09 288.87 397.92 289.45 397.84 C 290.48 397.27 291.50 396.69 292.53 396.11 C 293.01 396.05 293.96 395.92 294.44 395.85 Z" />
<path fill="#fbbc00" d=" M 154.53 393.28 C 156.22 394.14 157.91 394.99 159.59 395.88 C 160.06 395.93 160.99 396.03 161.46 396.08 C 162.49 396.69 163.52 397.30 164.56 397.92 C 165.02 397.99 165.92 398.13 166.38 398.20 C 167.39 398.55 168.40 398.89 169.42 399.24 C 170.46 399.75 171.51 400.26 172.56 400.77 C 173.58 401.07 174.59 401.37 175.61 401.69 C 176.96 402.01 178.31 402.33 179.65 402.69 C 180.08 402.84 180.94 403.15 181.37 403.30 C 182.69 403.67 184.02 404.00 185.36 404.33 C 186.68 404.70 188.02 405.03 189.35 405.36 C 191.00 405.74 192.65 406.06 194.31 406.38 C 196.30 406.74 198.29 407.05 200.28 407.40 C 203.44 407.91 206.66 407.99 209.78 408.76 C 211.82 408.91 213.86 408.99 215.91 409.06 C 220.57 411.00 224.96 413.52 229.58 415.57 C 229.63 427.24 229.49 438.92 229.65 450.59 C 221.08 450.48 212.50 450.81 203.94 450.46 C 200.28 449.35 196.44 449.32 192.65 449.54 C 191.84 448.92 191.03 448.32 190.22 447.72 C 187.81 447.74 185.40 447.74 182.99 447.59 C 181.62 445.99 179.43 446.55 177.61 446.39 C 176.83 445.82 176.05 445.26 175.28 444.70 C 173.85 444.67 172.44 444.64 171.02 444.58 C 169.76 442.77 167.41 443.62 165.60 443.36 C 164.85 442.80 164.10 442.25 163.35 441.71 C 161.54 441.47 159.31 442.17 157.93 440.59 C 157.51 440.51 156.68 440.34 156.26 440.25 C 155.80 439.83 154.86 439.00 154.39 438.58 C 153.74 438.56 152.43 438.53 151.77 438.51 C 150.60 437.52 149.10 437.28 147.63 437.18 C 146.85 436.64 146.08 436.11 145.31 435.57 C 144.67 435.56 143.39 435.52 142.75 435.50 C 139.32 433.33 135.52 431.82 132.11 429.63 C 131.13 429.54 130.15 429.45 129.18 429.36 C 128.91 429.14 128.39 428.70 128.12 428.48 C 123.59 424.98 118.22 422.74 113.68 419.22 C 113.51 417.73 113.35 416.25 113.19 414.77 C 126.52 406.77 141.17 401.24 154.53 393.28 Z" />
<path fill="#f39501" d=" M 283.37 399.72 C 284.62 399.35 285.87 399.00 287.14 398.68 C 287.79 412.76 287.40 426.87 287.40 440.96 C 286.63 441.78 285.87 442.60 285.11 443.43 C 284.85 443.72 284.32 444.28 284.06 444.57 C 280.07 443.88 277.05 447.06 273.10 446.62 C 270.90 448.75 267.48 447.38 264.77 447.70 C 263.96 448.30 263.16 448.91 262.36 449.53 C 258.57 449.35 254.73 449.29 251.08 450.46 C 243.95 450.82 236.79 450.48 229.65 450.59 C 229.49 438.92 229.63 427.24 229.58 415.57 C 234.12 413.35 238.63 411.06 243.22 408.95 C 243.50 408.89 244.08 408.75 244.36 408.69 C 247.43 407.96 250.61 407.95 253.72 407.40 C 255.70 407.05 257.69 406.74 259.68 406.38 C 261.34 406.06 263.01 405.75 264.66 405.39 C 265.99 405.01 267.32 404.63 268.65 404.23 C 269.56 404.08 270.47 403.94 271.39 403.80 C 272.38 403.42 273.39 403.05 274.40 402.70 C 275.79 402.22 277.19 401.77 278.59 401.30 C 279.60 400.94 280.60 400.59 281.60 400.23 C 282.05 400.10 282.93 399.85 283.37 399.72 Z" />
<path fill="#e7e45b" d=" M 93.22 405.94 C 100.56 407.07 106.54 411.82 113.19 414.77 C 113.35 416.25 113.51 417.73 113.68 419.22 C 118.22 422.74 123.59 424.98 128.12 428.48 C 122.09 427.03 117.57 422.51 112.13 419.81 C 105.79 415.25 98.30 412.01 93.22 405.94 Z" />
<path fill="#9fbb19" d=" M 215.91 409.06 C 225.01 408.90 234.12 409.11 243.22 408.95 C 238.63 411.06 234.12 413.35 229.58 415.57 C 224.96 413.52 220.57 411.00 215.91 409.06 Z" />
</svg>
